<svg width="20" height="20" viewBox="0 0 20 20" fill="none" xmlns="http://www.w3.org/2000/svg">
  <path fill-rule="evenodd" clip-rule="evenodd" d="M11.0541 15.687L13.3957 13.3453C13.4057 13.3353 13.4149 13.3253 13.4241 13.3153C13.4241 13.3153 13.8316 12.8503 14.4157 12.182C15.5932 10.8361 16.1507 9.05695 15.9516 7.28029C15.7524 5.50362 14.8149 3.89195 13.3691 2.84029L13.3674 2.83945C11.3741 1.38945 8.67241 1.38945 6.67824 2.83945L6.67657 2.83945C5.23074 3.89195 4.29324 5.50362 4.09407 7.28029C3.89574 9.05695 4.45241 10.8361 5.62991 12.182C6.21491 12.8503 6.62157 13.3153 6.62157 13.3153C6.63074 13.3253 6.63991 13.3253 6.64991 13.3353L8.99157 15.687C9.56157 16.257 10.4849 16.257 11.0541 15.687ZM10.1699 14.8036C10.0891 14.8845 9.95741 14.8845 9.87574 14.8036L7.54907 12.4761L6.57074 11.3586C5.62491 10.277 5.17657 8.84779 5.33657 7.41945C5.49657 5.99112 6.24991 4.69695 7.41241 3.85112L7.41324 3.85029C8.96907 2.71862 11.0766 2.71862 12.6324 3.85029L12.6341 3.85112C13.7957 4.69695 14.5491 5.99112 14.7091 7.41945C14.8691 8.84779 14.4216 10.277 13.4749 11.3586L12.4974 12.4761L10.1699 14.8036Z" fill="currentColor"></path>
  <path fill-rule="evenodd" clip-rule="evenodd" d="M10.0807 5.29029C8.86074 5.29029 7.87074 6.28112 7.87074 7.50112C7.87074 8.72112 8.86074 9.71195 10.0807 9.71195C11.3007 9.71195 12.2916 8.72112 12.2916 7.50112C12.2916 6.28112 11.3007 5.29029 10.0807 5.29029ZM10.0807 6.54029C10.6107 6.54029 11.0416 6.97112 11.0416 7.50112C11.0416 8.03112 10.6107 8.46195 10.0807 8.46195C9.55074 8.46195 9.12074 8.03112 9.12074 7.50112C9.12074 6.97112 9.55074 6.54029 10.0807 6.54029Z" fill="currentColor"></path>
</svg>