<svg width="107" height="105" viewBox="0 0 107 105" fill="none" xmlns="http://www.w3.org/2000/svg">
<g clip-path="url(#clip0_566_573)">
<path d="M28.7976 75.7654C45.3282 92.3378 65.1168 104.935 81.0489 104.935C88.5344 104.935 95.0604 101.954 99.3338 97.1835C103.431 92.579 104.954 89.0862 104.954 86.0503C104.954 83.6679 103.486 81.4911 99.7853 78.8975L86.0598 69.0503C82.6359 66.6329 81.1027 66.1906 79.0818 66.1906C77.3373 66.1906 75.8794 66.5224 72.9432 68.1103L64.0038 73.0166C62.9231 73.635 62.4604 73.7454 61.6759 73.7454C60.6054 73.7454 59.8963 73.4691 58.8156 73.007C54.5321 71.0414 48.5341 66.3367 43.1898 61.0034C37.8555 55.6599 33.7425 50.2658 31.571 45.9788C31.2844 45.4159 30.9526 44.5409 30.9526 43.6263C30.9526 42.8974 31.3198 42.2493 31.7723 41.4651L37.0115 32.452C38.4595 29.9889 38.8766 28.6318 38.8766 26.7118C38.8766 24.5351 38.1476 22.1726 36.0512 19.1918L26.5996 6.03227C23.9047 2.25741 21.7642 0 18.7275 0C14.9719 0 10.4119 2.8801 7.14411 6.02678C2.47355 10.5305 0 16.8338 0 23.9113C0 39.931 12.3224 59.3385 28.7976 75.7654Z" fill="black"/>
</g>
<defs>
<clipPath id="clip0_566_573">
<rect width="107" height="105" fill="white"/>
</clipPath>
</defs>
</svg>
