<svg width="90" height="90" viewBox="0 0 90 90" fill="none" xmlns="http://www.w3.org/2000/svg">
<path d="M72 12.4C66.2 14.5 11.6 38.2 10.3 39.3C9.6 39.8 9 41.8 9 43.6C9 47.5 11.4 49.4 21 53L26.7 55.1L29.5 64.1C33.4 76.6 35.6 77.6 43.6 70.6L48.7 66.1L54.6 72.1C59.7 77.2 60.9 78 64.2 78C67 78 68.3 77.4 69.4 75.7C71 73.3 81 23.4 81 17.8C81 12.5 77.6 10.5 72 12.4ZM69.4 44.1C66.8 57.5 64.3 68.9 63.9 69.4C63.5 69.9 60 67.3 56.2 63.6C52.4 60 49 57 48.7 57C48.3 57 46.2 58.6 44 60.6C39.8 64.4 39.3 64 41 57.9C41.7 55.3 45.4 50.7 53 42.7C59.1 36.4 64 30.9 64 30.6C64 28.9 59.7 30.9 45.3 39.3L29.5 48.7L24.5 46.7C21.8 45.6 19.2 44.4 18.7 44C18.1 43.4 73 19 73.8 19.5C74 19.7 72 30.7 69.4 44.1Z" fill="black"/>
</svg>
