<svg width="90" height="90" viewBox="0 0 90 90" fill="none" xmlns="http://www.w3.org/2000/svg">
<path d="M31.0002 11.2001C23.3002 14.2001 14.1002 23.5001 11.2002 31.3001C8.20016 39.2001 8.20016 50.8001 11.1002 58.6001L13.2002 64.3001L11.1002 72.3001C9.90016 76.7001 9.20016 80.5001 9.40016 80.8001C9.70016 81.0001 13.7002 80.3001 18.3002 79.2001C26.7002 77.1001 26.7002 77.1001 31.8002 79.0001C39.1002 81.8001 51.0002 81.7001 58.7002 78.8001C66.7002 75.9001 75.9002 66.7001 78.8002 58.7001C81.8002 50.8001 81.8002 39.2001 78.8002 31.3001C75.9002 23.3001 66.7002 14.1001 58.7002 11.2001C50.9002 8.20008 38.7002 8.30008 31.0002 11.2001ZM37.0002 32.9001C38.9002 36.6001 38.9002 37.0001 37.3002 39.7001C35.8002 42.4001 35.8002 42.8001 37.6002 45.4001C39.7002 48.8001 46.6002 54.0001 48.8002 54.0001C49.7002 54.0001 51.4002 53.0001 52.7002 51.8001C54.9002 49.7001 55.0002 49.7001 59.0002 51.5001C63.6002 53.6001 64.0002 55.1001 60.5002 58.5001C57.3002 61.8001 53.0002 61.7001 45.5002 58.1001C33.0002 52.3001 24.7002 38.2001 29.6002 31.2001C32.0002 27.8001 34.7002 28.4001 37.0002 32.9001Z" fill="black"/>
</svg>
